<svg width="24" height="24" viewBox="0 0 24 24" fill="none" xmlns="http://www.w3.org/2000/svg">
<rect width="24" height="24" fill="#0F0F0F"/>
<rect width="320" height="1285" transform="translate(-245 -183)" fill="#1B1A1A"/>
<rect x="-225" y="-172" width="280" height="1263" rx="8" fill="#1B1A1A"/>
<rect x="-209" y="-67" width="248" height="163" rx="8" fill="url(#paint0_linear_0_1)"/>
<path d="M16.4739 22.1786C16.0816 22.0199 15.8014 21.6649 15.736 21.2446C15.6893 21.0018 15.736 20.8336 16.1096 20.1612C17.5106 17.6393 18.2298 14.7905 18.1925 11.9044C18.2298 9.10238 17.548 6.3657 16.203 3.90923C16.0069 3.49827 15.8294 3.10598 15.6799 2.68567C15.736 2.33074 15.9134 2.00384 16.203 1.80769C16.6233 1.58353 17.137 1.63023 17.52 1.89175C17.7815 2.228 18.0056 2.56425 18.1925 2.95654C19.2012 4.89929 19.883 6.95413 20.2193 9.10238C20.4341 10.7929 20.4621 12.5115 20.3033 14.2115C20.0138 16.3971 19.3693 18.5079 18.3793 20.4787C17.7815 21.6743 17.4452 22.1786 17.0903 22.1786C17.0156 22.1786 16.9315 22.1786 16.8568 22.1786C16.726 22.1786 16.6046 22.1786 16.4739 22.1786ZM12.4015 20.1145C11.8692 19.965 11.5329 19.4233 11.645 18.8815C11.645 18.7695 11.9345 18.2558 12.1961 17.7327C13.2982 15.6125 13.7745 13.2214 13.5597 10.8397C13.429 9.1304 12.9339 7.46784 12.1213 5.96407C11.5329 4.78721 11.4955 4.60041 11.8411 4.09604C12.2521 3.63837 12.9339 3.57299 13.4383 3.96528C14.1108 4.95533 14.6432 6.0388 15.0355 7.1783C16.231 10.7182 16.0442 14.5757 14.5124 17.9756C13.7278 19.7408 13.1768 20.3106 12.4015 20.0678V20.1145ZM8.19846 18.0316C7.86221 17.8821 7.61003 17.5833 7.51662 17.2283C7.51662 17.0415 7.51662 16.7987 7.93693 16.0515C9.32862 13.5296 9.32862 10.466 7.93693 7.94419C7.32982 6.76733 7.32982 6.52449 7.82485 6.07616C8.00231 5.87067 8.26384 5.76793 8.54404 5.80529C9.14182 5.80529 9.47806 6.09484 9.98243 7.15028C10.7763 8.60735 11.1873 10.2419 11.178 11.9044C11.2153 13.595 10.8044 15.2762 9.99177 16.7613C9.4874 17.742 9.23522 17.9756 8.73085 18.0596C8.55338 18.0783 8.36658 18.0596 8.19846 17.9756V18.0316ZM4.26624 16.0421C3.95801 15.8927 3.71517 15.6405 3.59375 15.3136C3.50034 14.9867 3.59375 14.7065 3.96735 14.1087C4.43436 13.4736 4.65853 12.689 4.61183 11.9044C4.67721 11.1105 4.46238 10.3259 4.00471 9.67213C3.84593 9.43862 3.71517 9.18644 3.59375 8.93425C3.491 8.34582 3.88329 7.78541 4.52777 7.67333C5.03214 7.57993 5.38706 7.79475 5.85407 8.5046C7.2084 10.5688 7.2084 13.2307 5.85407 15.2949C5.37772 16.0141 4.83599 16.2289 4.27558 16.0421H4.26624Z" fill="#FAFAFA"/>
<defs>
<linearGradient id="paint0_linear_0_1" x1="-201.99" y1="90.1171" x2="2.1271" y2="-45.3617" gradientUnits="userSpaceOnUse">
<stop offset="0.145857" stop-color="#EC116D"/>
<stop offset="0.672483" stop-color="#595CC7" stop-opacity="0.8"/>
<stop offset="1" stop-color="#13257B"/>
</linearGradient>
</defs>
</svg>
