<svg width="68" height="68" viewBox="0 0 68 68" fill="none" xmlns="http://www.w3.org/2000/svg">
<path d="M47.0913 64.5089C45.9134 64.0321 45.0719 62.9663 44.8756 61.7042C44.7354 60.975 44.8756 60.4701 45.9975 58.4507C50.2046 50.8779 52.3642 42.3235 52.252 33.6569C52.3642 25.2427 50.3168 17.0249 46.278 9.64843C45.689 8.41435 45.1561 7.23637 44.7073 5.97424C44.8756 4.90844 45.4085 3.92679 46.278 3.3378C47.5401 2.66466 49.0827 2.8049 50.2326 3.59022C51.018 4.59992 51.6911 5.60963 52.252 6.78761C55.2811 12.6214 57.3286 18.7918 58.3383 25.2427C58.9834 30.3193 59.0675 35.48 58.5907 40.5846C57.7213 47.1476 55.786 53.4863 52.813 59.4043C51.018 62.9944 50.0083 64.5089 48.9425 64.5089C48.7181 64.5089 48.4657 64.5089 48.2413 64.5089C47.8486 64.5089 47.484 64.5089 47.0913 64.5089ZM34.8627 58.3105C33.264 57.8617 32.2543 56.235 32.5909 54.6082C32.5909 54.2717 33.4604 52.7291 34.2457 51.1584C37.5553 44.7917 38.9857 37.6116 38.3406 30.4595C37.9479 25.3269 36.4614 20.3344 34.0213 15.8188C32.2543 12.2849 32.1421 11.7239 33.1799 10.2094C34.414 8.83506 36.4614 8.63873 37.976 9.81672C39.9954 12.7897 41.5941 16.0432 42.7721 19.465C46.3621 30.0949 45.8012 41.6784 41.2014 51.8876C38.8454 57.1886 37.1907 58.8995 34.8627 58.1702V58.3105ZM22.2415 52.0559C21.2318 51.6072 20.4745 50.7097 20.194 49.6439C20.194 49.0829 20.194 48.3537 21.4561 46.1099C25.6352 38.5371 25.6352 29.3376 21.4561 21.7649C19.6331 18.2309 19.6331 17.5017 21.1196 16.1554C21.6525 15.5384 22.4378 15.2298 23.2792 15.342C25.0742 15.342 26.0839 16.2115 27.5985 19.3808C29.9825 23.7562 31.2166 28.6645 31.1885 33.6569C31.3007 38.7335 30.0666 43.782 27.6265 48.2415C26.112 51.1865 25.3547 51.8876 23.8402 52.1401C23.3073 52.1962 22.7463 52.1401 22.2415 51.8876V52.0559ZM10.4336 46.0819C9.50799 45.6331 8.77876 44.8758 8.41415 43.8942C8.13368 42.9125 8.41415 42.0711 9.53604 40.2761C10.9384 38.3688 11.6115 36.0129 11.4713 33.6569C11.6676 31.2729 11.0225 28.9169 9.64823 26.9536C9.17143 26.2524 8.77876 25.4951 8.41415 24.7379C8.10563 22.9709 9.28361 21.2881 11.2189 20.9515C12.7334 20.671 13.7992 21.3161 15.2016 23.4477C19.2684 29.6461 19.2684 37.6396 15.2016 43.8381C13.7712 45.9977 12.1444 46.6428 10.4616 46.0819H10.4336Z" fill="#FAFAFA"/>
</svg>
