<svg width="32" height="33" viewBox="0 0 32 33" fill="none" xmlns="http://www.w3.org/2000/svg">
<path d="M6.67318 12.5037C7.40956 12.5037 8.00651 13.1007 8.00651 13.8371C10.1862 13.8371 12.1914 14.5843 13.7799 15.8364L16.6732 15.8371C18.45 15.8371 20.0464 16.6095 21.1451 17.8367L25.3399 17.8371C27.9963 17.8371 30.2897 19.3908 31.3613 21.6389C28.2083 25.7997 23.1024 28.5037 17.3399 28.5037C13.6189 28.5037 10.4729 27.6995 7.92534 26.2932C7.74076 26.8045 7.2497 27.1704 6.67318 27.1704H2.67318C1.9368 27.1704 1.33984 26.5735 1.33984 25.8371V13.8371C1.33984 13.1007 1.9368 12.5037 2.67318 12.5037H6.67318ZM8.00786 16.5037L8.00651 23.1997L8.06699 23.2431C10.4587 24.9236 13.5773 25.8371 17.3399 25.8371C21.3452 25.8371 25.0713 24.2963 27.7867 21.6645L27.9639 21.4864L27.8049 21.3525C27.1863 20.8685 26.4273 20.5683 25.6132 20.5129L25.3399 20.5037H22.5245C22.6219 20.9325 22.6732 21.3788 22.6732 21.8371V23.1704H10.6732V20.5037L19.7265 20.5024L19.6807 20.3977C19.1733 19.3396 18.124 18.5908 16.8924 18.5108L16.6732 18.5037L12.7673 18.5036C11.5576 17.2697 9.87216 16.5041 8.00786 16.5037ZM5.33984 15.1704H4.00651V24.5037H5.33984V15.1704ZM24.0065 7.17041C26.2156 7.17041 28.0065 8.96126 28.0065 11.1704C28.0065 13.3795 26.2156 15.1704 24.0065 15.1704C21.7973 15.1704 20.0065 13.3795 20.0065 11.1704C20.0065 8.96126 21.7973 7.17041 24.0065 7.17041ZM24.0065 9.83708C23.2701 9.83708 22.6732 10.434 22.6732 11.1704C22.6732 11.9068 23.2701 12.5037 24.0065 12.5037C24.7429 12.5037 25.3399 11.9068 25.3399 11.1704C25.3399 10.434 24.7429 9.83708 24.0065 9.83708ZM14.6732 3.17041C16.8823 3.17041 18.6732 4.96126 18.6732 7.17041C18.6732 9.37954 16.8823 11.1704 14.6732 11.1704C12.464 11.1704 10.6732 9.37954 10.6732 7.17041C10.6732 4.96126 12.464 3.17041 14.6732 3.17041ZM14.6732 5.83708C13.9368 5.83708 13.3399 6.43402 13.3399 7.17041C13.3399 7.90678 13.9368 8.50374 14.6732 8.50374C15.4096 8.50374 16.0065 7.90678 16.0065 7.17041C16.0065 6.43402 15.4096 5.83708 14.6732 5.83708Z" fill="white"/>
</svg>
