<svg width="36" height="37" viewBox="0 0 36 37" fill="none" xmlns="http://www.w3.org/2000/svg">
<path d="M2 25.6111V11.3889C2 6.4797 5.9797 2.5 10.8889 2.5H25.1111C30.0203 2.5 34 6.4797 34 11.3889V25.6111C34 30.5203 30.0203 34.5 25.1111 34.5H10.8889C5.9797 34.5 2 30.5203 2 25.6111Z" stroke="white" stroke-width="3.25"/>
<path d="M26 22.9443C26 22.9443 23.3333 26.4999 18 26.4999C12.6667 26.4999 10 22.9443 10 22.9443" stroke="white" stroke-width="3.25" stroke-linecap="round" stroke-linejoin="round"/>
<path d="M11.7778 14.9443C11.2869 14.9443 10.8889 14.5463 10.8889 14.0554C10.8889 13.5645 11.2869 13.1665 11.7778 13.1665C12.2687 13.1665 12.6667 13.5645 12.6667 14.0554C12.6667 14.5463 12.2687 14.9443 11.7778 14.9443Z" stroke="white" stroke-width="3.25" stroke-linecap="round" stroke-linejoin="round"/>
<path d="M24.2221 14.9443C23.7313 14.9443 23.3333 14.5463 23.3333 14.0554C23.3333 13.5645 23.7313 13.1665 24.2221 13.1665C24.713 13.1665 25.111 13.5645 25.111 14.0554C25.111 14.5463 24.713 14.9443 24.2221 14.9443Z" stroke="white" stroke-width="3.25" stroke-linecap="round" stroke-linejoin="round"/>
</svg>
