<svg width="32" height="33" viewBox="0 0 32 33" fill="none" xmlns="http://www.w3.org/2000/svg">
<path d="M14.6733 3.16675L24.4044 6.20769C24.9609 6.38164 25.34 6.89716 25.34 7.48033V9.83341H28.0066C28.743 9.83341 29.34 10.4304 29.34 11.1667V21.8334C29.34 22.5698 28.743 23.1667 28.0066 23.1667L23.7132 23.1682C23.1977 23.8478 22.5702 24.4491 21.8466 24.9425L14.6733 29.8334L7.4999 24.9425C5.31426 23.4522 4.00659 20.9779 4.00659 18.3326V7.48033C4.00659 6.89716 4.38559 6.38164 4.94223 6.20769L14.6733 3.16675ZM14.6733 5.95875L6.67326 8.46008V18.3326C6.67326 19.9925 7.4455 21.5513 8.75114 22.5571L9.00214 22.7391L14.6733 26.6054L19.716 23.1667H13.34C12.6036 23.1667 12.0066 22.5698 12.0066 21.8334V11.1667C12.0066 10.4304 12.6036 9.83341 13.34 9.83341H22.6733V8.46008L14.6733 5.95875ZM14.6733 16.5001V20.5001H26.6733V16.5001H14.6733ZM14.6733 13.8334H26.6733V12.5001H14.6733V13.8334Z" fill="white"/>
</svg>
