<svg width="68" height="68" viewBox="0 0 68 68" fill="none" xmlns="http://www.w3.org/2000/svg">
<path d="M47.6272 64.9425C46.4492 64.4657 45.6078 63.3999 45.4115 62.1378C45.2713 61.4086 45.4115 60.9037 46.5334 58.8843C50.7405 51.3115 52.9001 42.7571 52.7879 34.0905C52.9001 25.6763 50.8527 17.4585 46.8139 10.082C46.2249 8.84795 45.692 7.66996 45.2432 6.40783C45.4115 5.34204 45.9444 4.36038 46.8139 3.77139C48.076 3.09826 49.6186 3.23849 50.7685 4.02382C51.5539 5.03352 52.227 6.04322 52.7879 7.22121C55.817 13.055 57.8645 19.2254 58.8742 25.6763C59.5193 30.7529 59.6034 35.9136 59.1266 41.0182C58.2571 47.5812 56.3219 53.9199 53.3489 59.8379C51.5539 63.428 50.5442 64.9425 49.4784 64.9425C49.254 64.9425 49.0016 64.9425 48.7772 64.9425C48.3845 64.9425 48.0199 64.9425 47.6272 64.9425ZM35.3986 58.7441C33.7999 58.2953 32.7902 56.6686 33.1268 55.0418C33.1268 54.7052 33.9963 53.1627 34.7816 51.592C38.0912 45.2253 39.5216 38.0452 38.8765 30.8931C38.4838 25.7605 36.9973 20.768 34.5572 16.2524C32.7902 12.7185 32.678 12.1575 33.7158 10.643C34.9499 9.26866 36.9973 9.07233 38.5119 10.2503C40.5313 13.2233 42.13 16.4768 43.308 19.8986C46.898 30.5285 46.3371 42.112 41.7373 52.3212C39.3813 57.6222 37.7265 59.3331 35.3986 58.6038V58.7441ZM22.7773 52.4895C21.7676 52.0408 21.0104 51.1432 20.7299 50.0775C20.7299 49.5165 20.7299 48.7873 21.992 46.5435C26.1711 38.9707 26.1711 29.7712 21.992 22.1985C20.1689 18.6645 20.169 17.9353 21.6555 16.589C22.1884 15.972 22.9737 15.6634 23.8151 15.7756C25.6101 15.7756 26.6198 16.6451 28.1344 19.8144C30.5184 24.1898 31.7525 29.0981 31.7244 34.0905C31.8366 39.1671 30.6025 44.2156 28.1624 48.6751C26.6479 51.6201 25.8906 52.3212 24.376 52.5737C23.8431 52.6298 23.2822 52.5737 22.7773 52.3212V52.4895ZM10.9694 46.5154C10.0439 46.0667 9.31465 45.3094 8.95004 44.3278C8.66956 43.3461 8.95004 42.5047 10.0719 40.7097C11.4743 38.8024 12.1474 36.4465 12.0072 34.0905C12.2035 31.7065 11.5584 29.3505 10.1841 27.3872C9.70731 26.686 9.31465 25.9287 8.95004 25.1715C8.64152 23.4045 9.8195 21.7216 11.7548 21.3851C13.2693 21.1046 14.3351 21.7497 15.7375 23.8813C19.8043 30.0797 19.8043 38.0732 15.7375 44.2717C14.3071 46.4313 12.6803 47.0764 10.9975 46.5154H10.9694Z" fill="#FAFAFA"/>
</svg>
