<svg width="23" height="23" viewBox="0 0 23 23" fill="none" xmlns="http://www.w3.org/2000/svg">
<path d="M15.6821 21.4823C15.2898 21.3236 15.0096 20.9686 14.9442 20.5483C14.8975 20.3055 14.9442 20.1374 15.3178 19.4649C16.7189 16.943 17.4381 14.0943 17.4007 11.2081C17.4381 8.40609 16.7562 5.66941 15.4112 3.21295C15.2151 2.80198 15.0376 2.40969 14.8882 1.98938C14.9442 1.63445 15.1217 1.30755 15.4112 1.1114C15.8316 0.88724 16.3453 0.93394 16.7282 1.19547C16.9897 1.53171 17.2139 1.86796 17.4007 2.26025C18.4094 4.203 19.0913 6.25785 19.4275 8.40609C19.6423 10.0967 19.6704 11.8153 19.5116 13.5152C19.222 15.7008 18.5776 17.8117 17.5875 19.7824C16.9897 20.978 16.6535 21.4823 16.2986 21.4823C16.2238 21.4823 16.1398 21.4823 16.0651 21.4823C15.9343 21.4823 15.8129 21.4823 15.6821 21.4823ZM11.6098 19.4182C11.0774 19.2687 10.7412 18.727 10.8532 18.1853C10.8532 18.0732 11.1428 17.5595 11.4043 17.0364C12.5064 14.9162 12.9828 12.5251 12.768 10.1434C12.6372 8.43411 12.1422 6.77156 11.3296 5.26779C10.7412 4.09092 10.7038 3.90412 11.0494 3.39975C11.4603 2.94208 12.1422 2.8767 12.6466 3.26899C13.319 4.25905 13.8514 5.34251 14.2437 6.48201C15.4393 10.0219 15.2525 13.8794 13.7207 17.2793C12.9361 19.0446 12.385 19.6143 11.6098 19.3715V19.4182ZM7.40671 17.3353C7.07046 17.1859 6.81828 16.887 6.72488 16.532C6.72488 16.3452 6.72488 16.1024 7.14518 15.3552C8.53687 12.8333 8.53687 9.76975 7.14518 7.24791C6.53807 6.07104 6.53807 5.8282 7.0331 5.37987C7.21057 5.17438 7.47209 5.07164 7.7523 5.109C8.35007 5.109 8.68631 5.39855 9.19068 6.45399C9.9846 7.91106 10.3956 9.54559 10.3862 11.2081C10.4236 12.8987 10.0126 14.58 9.20002 16.065C8.69565 17.0458 8.44347 17.2793 7.9391 17.3633C7.76164 17.382 7.57483 17.3633 7.40671 17.2793V17.3353ZM3.47449 15.3458C3.16627 15.1964 2.92342 14.9442 2.802 14.6173C2.7086 14.2904 2.802 14.0102 3.17561 13.4124C3.64262 12.7773 3.86678 11.9927 3.82008 11.2081C3.88546 10.4142 3.67064 9.62965 3.21297 8.97584C3.05418 8.74233 2.92342 8.49015 2.802 8.23796C2.69926 7.64953 3.09154 7.08912 3.73602 6.97704C4.24039 6.88364 4.59531 7.09846 5.06232 7.80832C6.41665 9.8725 6.41665 12.5344 5.06232 14.5986C4.58597 15.3178 4.04424 15.5326 3.48383 15.3458H3.47449Z" fill="#FAFAFA"/>
</svg>
