<svg width="40" height="40" viewBox="0 0 40 40" fill="none" xmlns="http://www.w3.org/2000/svg">
<path d="M8.34147 15.0048C9.26195 15.0048 10.0081 15.751 10.0081 16.6715C12.7328 16.6715 15.2392 17.6055 17.2248 19.1706L20.8415 19.1715C23.0625 19.1715 25.058 20.1369 26.4313 21.6709L31.6748 21.6715C34.9953 21.6715 37.8622 23.6136 39.2017 26.4238C35.2603 31.6248 28.878 35.0048 21.6748 35.0048C17.0237 35.0048 13.0911 33.9995 9.90667 32.2416C9.67595 32.8808 9.06212 33.3381 8.34147 33.3381H3.34147C2.421 33.3381 1.6748 32.592 1.6748 31.6715V16.6715C1.6748 15.751 2.421 15.0048 3.34147 15.0048H8.34147ZM10.0098 20.0048L10.0081 28.3748L10.0837 28.429C13.0734 30.5296 16.9717 31.6715 21.6748 31.6715C26.6815 31.6715 31.3392 29.7455 34.7333 26.4558L34.9548 26.2331L34.7562 26.0658C33.9828 25.4608 33.0342 25.0854 32.0165 25.0163L31.6748 25.0048H28.1557C28.2773 25.5408 28.3415 26.0986 28.3415 26.6715V28.3381H13.3415V25.0048L24.6582 25.0031L24.6008 24.8723C23.9667 23.5496 22.655 22.6136 21.1155 22.5136L20.8415 22.5048L15.9591 22.5046C14.4471 20.9623 12.3402 20.0053 10.0098 20.0048ZM6.6748 18.3381H5.00814V30.0048H6.6748V18.3381ZM30.0082 8.33813C32.7695 8.33813 35.0082 10.5767 35.0082 13.3381C35.0082 16.0996 32.7695 18.3381 30.0082 18.3381C27.2467 18.3381 25.0082 16.0996 25.0082 13.3381C25.0082 10.5767 27.2467 8.33813 30.0082 8.33813ZM30.0082 11.6715C29.0877 11.6715 28.3415 12.4177 28.3415 13.3381C28.3415 14.2586 29.0877 15.0048 30.0082 15.0048C30.9287 15.0048 31.6748 14.2586 31.6748 13.3381C31.6748 12.4177 30.9287 11.6715 30.0082 11.6715ZM18.3415 3.33813C21.1028 3.33813 23.3415 5.5767 23.3415 8.33813C23.3415 11.0996 21.1028 13.3381 18.3415 13.3381C15.5801 13.3381 13.3415 11.0996 13.3415 8.33813C13.3415 5.5767 15.5801 3.33813 18.3415 3.33813ZM18.3415 6.67147C17.421 6.67147 16.6748 7.41765 16.6748 8.33813C16.6748 9.2586 17.421 10.0048 18.3415 10.0048C19.262 10.0048 20.0082 9.2586 20.0082 8.33813C20.0082 7.41765 19.262 6.67147 18.3415 6.67147Z" fill="white"/>
</svg>
