<svg width="88" height="88" viewBox="0 0 88 88" fill="none" xmlns="http://www.w3.org/2000/svg">
<path d="M4 61.7778V26.2222C4 13.9492 13.9492 4 26.2222 4H61.7778C74.0507 4 84 13.9492 84 26.2222V61.7778C84 74.0507 74.0507 84 61.7778 84H26.2222C13.9492 84 4 74.0507 4 61.7778Z" stroke="white" stroke-width="7.25414"/>
<path d="M64 55.1108C64 55.1108 57.3333 63.9997 44 63.9997C30.6667 63.9997 24 55.1108 24 55.1108" stroke="white" stroke-width="7.25414" stroke-linecap="round" stroke-linejoin="round"/>
<path d="M28.4445 35.1109C27.2172 35.1109 26.2223 34.116 26.2223 32.8887C26.2223 31.6614 27.2172 30.6665 28.4445 30.6665C29.6718 30.6665 30.6667 31.6614 30.6667 32.8887C30.6667 34.116 29.6718 35.1109 28.4445 35.1109Z" stroke="white" stroke-width="7.25414" stroke-linecap="round" stroke-linejoin="round"/>
<path d="M59.5556 35.1109C58.3285 35.1109 57.3334 34.116 57.3334 32.8887C57.3334 31.6614 58.3285 30.6665 59.5556 30.6665C60.7827 30.6665 61.7778 31.6614 61.7778 32.8887C61.7778 34.116 60.7827 35.1109 59.5556 35.1109Z" stroke="white" stroke-width="7.25414" stroke-linecap="round" stroke-linejoin="round"/>
</svg>
