<svg width="40" height="41" viewBox="0 0 40 41" fill="none" xmlns="http://www.w3.org/2000/svg">
<path d="M18.3415 3.8335L30.5054 7.63468C31.201 7.85211 31.6749 8.49651 31.6749 9.22548V12.1668H35.0082C35.9287 12.1668 36.6749 12.913 36.6749 13.8335V27.1668C36.6749 28.0873 35.9287 28.8335 35.0082 28.8335L29.6414 28.8353C28.997 29.6848 28.2127 30.4365 27.3082 31.0532L18.3415 37.1668L9.37481 31.0532C6.64276 29.1903 5.00818 26.0975 5.00818 22.7908V9.22548C5.00818 8.49651 5.48193 7.85211 6.17773 7.63468L18.3415 3.8335ZM18.3415 7.3235L8.34151 10.4502V22.7908C8.34151 24.8657 9.30681 26.8142 10.9389 28.0715L11.2526 28.299L18.3415 33.1318L24.6449 28.8335H16.6749C15.7544 28.8335 15.0082 28.0873 15.0082 27.1668V13.8335C15.0082 12.913 15.7544 12.1668 16.6749 12.1668H28.3415V10.4502L18.3415 7.3235ZM18.3415 20.5002V25.5002H33.3415V20.5002H18.3415ZM18.3415 17.1668H33.3415V15.5002H18.3415V17.1668Z" fill="white"/>
</svg>
