<svg width="125" height="125" viewBox="0 0 125 125" fill="none" xmlns="http://www.w3.org/2000/svg">
<path d="M87.4479 119.792C85.2604 118.906 83.6979 116.927 83.3333 114.583C83.0729 113.229 83.3333 112.292 85.4167 108.542C93.2292 94.4793 97.2396 78.5938 97.0312 62.5001C97.2396 46.8751 93.4375 31.6147 85.9375 17.9167C84.8437 15.6251 83.8542 13.4376 83.0208 11.0938C83.3333 9.11466 84.3229 7.29175 85.9375 6.198C88.2812 4.948 91.1458 5.20841 93.2812 6.66675C94.7396 8.54175 95.9896 10.4167 97.0312 12.6042C102.656 23.4376 106.458 34.8959 108.333 46.8751C109.531 56.3022 109.687 65.8855 108.802 75.3647C107.187 87.5522 103.594 99.323 98.0729 110.313C94.7396 116.979 92.8646 119.792 90.8854 119.792C90.4687 119.792 90 119.792 89.5833 119.792C88.8542 119.792 88.1771 119.792 87.4479 119.792ZM64.7396 108.281C61.7708 107.448 59.8958 104.427 60.5208 101.406C60.5208 100.781 62.1354 97.9168 63.5937 95.0001C69.7396 83.1772 72.3958 69.8438 71.1979 56.5626C70.4687 47.0313 67.7083 37.7605 63.1771 29.3751C59.8958 22.8126 59.6875 21.7709 61.6146 18.9584C63.9062 16.4063 67.7083 16.0417 70.5208 18.2292C74.2708 23.7501 77.2396 29.7917 79.4271 36.1459C86.0937 55.8855 85.0521 77.3959 76.5104 96.3543C72.1354 106.198 69.0625 109.375 64.7396 108.021V108.281ZM41.3021 96.6667C39.4271 95.8334 38.0208 94.1668 37.5 92.1876C37.5 91.1459 37.5 89.7917 39.8437 85.6251C47.6042 71.5626 47.6042 54.4793 39.8437 40.4168C36.4583 33.8542 36.4583 32.5001 39.2187 30.0001C40.2083 28.8542 41.6667 28.2813 43.2292 28.4897C46.5625 28.4897 48.4375 30.1042 51.25 35.9897C55.6771 44.1147 57.9687 53.2292 57.9167 62.5001C58.125 71.9272 55.8333 81.3022 51.3021 89.5834C48.4896 95.0522 47.0833 96.3543 44.2708 96.823C43.2812 96.9272 42.2396 96.823 41.3021 96.3543V96.6667ZM19.375 85.573C17.6562 84.7397 16.3021 83.3334 15.625 81.5105C15.1042 79.6876 15.625 78.1251 17.7083 74.7917C20.3125 71.2501 21.5625 66.8751 21.3021 62.5001C21.6667 58.073 20.4687 53.698 17.9167 50.0522C17.0312 48.7501 16.3021 47.3438 15.625 45.9376C15.0521 42.6563 17.2396 39.5313 20.8333 38.9063C23.6458 38.3855 25.625 39.5834 28.2292 43.5417C35.7812 55.0522 35.7812 69.8959 28.2292 81.4063C25.5729 85.4167 22.5521 86.6147 19.4271 85.573H19.375Z" fill="#FAFAFA"/>
</svg>
