<svg width="67" height="68" viewBox="0 0 67 68" fill="none" xmlns="http://www.w3.org/2000/svg">
<path d="M13.972 25.6327C15.5138 25.6327 16.7636 26.8826 16.7636 28.4244C21.3274 28.4244 25.5257 29.9888 28.8516 32.6105L34.9095 32.6119C38.6297 32.6119 41.9721 34.2291 44.2725 36.7985L53.0553 36.7994C58.6172 36.7994 63.4191 40.0525 65.6628 44.7595C59.0611 53.4712 48.3706 59.1327 36.3053 59.1327C28.5146 59.1327 21.9276 57.4488 16.5937 54.5044C16.2072 55.575 15.179 56.341 13.972 56.341H5.59696C4.05518 56.341 2.80529 55.0912 2.80529 53.5494V28.4244C2.80529 26.8826 4.05518 25.6327 5.59696 25.6327H13.972ZM16.7664 34.0077L16.7636 48.0275L16.8903 48.1182C21.898 51.6368 28.4275 53.5494 36.3053 53.5494C44.6915 53.5494 52.4931 50.3233 58.1783 44.8131L58.5493 44.4402L58.2166 44.1599C56.9212 43.1465 55.3322 42.5178 53.6276 42.402L53.0553 42.3827H47.1607C47.3645 43.2805 47.472 44.2149 47.472 45.1744V47.966H22.347V42.3827L41.3024 42.3799L41.2064 42.1608C40.1442 39.9453 37.9471 38.3775 35.3685 38.21L34.9095 38.1952L26.7315 38.1949C24.1988 35.6115 20.6698 34.0085 16.7664 34.0077ZM11.1803 31.216H8.38862V50.7577H11.1803V31.216ZM50.2637 14.4661C54.8889 14.4661 58.6387 18.2157 58.6387 22.8411C58.6387 27.4664 54.8889 31.216 50.2637 31.216C45.6382 31.216 41.8887 27.4664 41.8887 22.8411C41.8887 18.2157 45.6382 14.4661 50.2637 14.4661ZM50.2637 20.0494C48.7218 20.0494 47.472 21.2993 47.472 22.8411C47.472 24.3828 48.7218 25.6327 50.2637 25.6327C51.8055 25.6327 53.0553 24.3828 53.0553 22.8411C53.0553 21.2993 51.8055 20.0494 50.2637 20.0494ZM30.722 6.09106C35.3472 6.09106 39.097 9.84066 39.097 14.4661C39.097 19.0914 35.3472 22.8411 30.722 22.8411C26.0966 22.8411 22.347 19.0914 22.347 14.4661C22.347 9.84066 26.0966 6.09106 30.722 6.09106ZM30.722 11.6744C29.1802 11.6744 27.9303 12.9243 27.9303 14.4661C27.9303 16.0078 29.1802 17.2577 30.722 17.2577C32.2638 17.2577 33.5137 16.0078 33.5137 14.4661C33.5137 12.9243 32.2638 11.6744 30.722 11.6744Z" fill="white"/>
</svg>
