<svg width="95" height="95" viewBox="0 0 95 95" fill="none" xmlns="http://www.w3.org/2000/svg">
<path d="M4 66.8692V28.1805C4 14.826 14.826 4 28.1805 4H66.8692C80.2236 4 91.0497 14.826 91.0497 28.1805V66.8692C91.0497 80.2236 80.2236 91.0497 66.8692 91.0497H28.1805C14.826 91.0497 4 80.2236 4 66.8692Z" stroke="white" stroke-width="7.25414"/>
<path d="M69.2872 59.615C69.2872 59.615 62.0331 69.2872 47.5248 69.2872C33.0165 69.2872 25.7624 59.615 25.7624 59.615" stroke="white" stroke-width="7.25414" stroke-linecap="round" stroke-linejoin="round"/>
<path d="M30.5985 37.8527C29.2631 37.8527 28.1805 36.7701 28.1805 35.4346C28.1805 34.0992 29.2631 33.0166 30.5985 33.0166C31.934 33.0166 33.0166 34.0992 33.0166 35.4346C33.0166 36.7701 31.934 37.8527 30.5985 37.8527Z" stroke="white" stroke-width="7.25414" stroke-linecap="round" stroke-linejoin="round"/>
<path d="M64.4512 37.8527C63.1159 37.8527 62.0331 36.7701 62.0331 35.4346C62.0331 34.0992 63.1159 33.0166 64.4512 33.0166C65.7864 33.0166 66.8692 34.0992 66.8692 35.4346C66.8692 36.7701 65.7864 37.8527 64.4512 37.8527Z" stroke="white" stroke-width="7.25414" stroke-linecap="round" stroke-linejoin="round"/>
</svg>
