<svg width="67" height="68" viewBox="0 0 67 68" fill="none" xmlns="http://www.w3.org/2000/svg">
<path d="M30.722 6.08325L51.0964 12.4502C52.2617 12.8144 53.0553 13.8938 53.0553 15.1148V20.0416H58.6387C60.1805 20.0416 61.4303 21.2915 61.4303 22.8333V45.1666C61.4303 46.7084 60.1805 47.9582 58.6387 47.9582L49.6492 47.9613C48.57 49.3842 47.2562 50.6433 45.7412 51.6762L30.722 61.9166L15.7027 51.6762C11.1265 48.5559 8.38861 43.3755 8.38861 37.8368V15.1148C8.38861 13.8938 9.18214 12.8144 10.3476 12.4502L30.722 6.08325ZM30.722 11.929L13.9719 17.1662V37.8368C13.9719 41.3121 15.5888 44.5759 18.3225 46.6819L18.848 47.063L30.722 55.158L41.2801 47.9582H27.9303C26.3885 47.9582 25.1386 46.7084 25.1386 45.1666V22.8333C25.1386 21.2915 26.3885 20.0416 27.9303 20.0416H47.472V17.1662L30.722 11.929ZM30.722 33.9999V42.3749H55.847V33.9999H30.722ZM30.722 28.4166H55.847V25.6249H30.722V28.4166Z" fill="white"/>
</svg>
